<svg width="48" height="44" viewBox="0 0 48 44" fill="none" xmlns="http://www.w3.org/2000/svg">
<path opacity="0.2" d="M46.2858 14.4132C46.2858 29.3697 24.0001 42.06 24.0001 42.06C24.0001 42.06 1.71436 29.3697 1.71436 14.4132C1.71436 11.1677 2.93348 8.05511 5.10355 5.7602C7.27361 3.46529 10.2169 2.17603 13.2858 2.17603C18.1265 2.17603 22.2729 4.96564 24.0001 9.42766C25.7272 4.96564 29.8736 2.17603 34.7144 2.17603C37.7833 2.17603 40.7265 3.46529 42.8966 5.7602C45.0667 8.05511 46.2858 11.1677 46.2858 14.4132Z" fill="#FF0000"/>
<path d="M34.7143 0C30.2893 0 26.415 2.01233 24 5.4138C21.585 2.01233 17.7107 0 13.2857 0C9.76334 0.00419855 6.38638 1.48582 3.89568 4.1198C1.40499 6.75378 0.00397015 10.325 0 14.05C0 29.913 22.2407 42.7529 23.1879 43.2832C23.4375 43.4252 23.7165 43.4996 24 43.4996C24.2835 43.4996 24.5625 43.4252 24.8121 43.2832C25.7593 42.7529 48 29.913 48 14.05C47.996 10.325 46.595 6.75378 44.1043 4.1198C41.6136 1.48582 38.2367 0.00419855 34.7143 0ZM24 39.6121C20.0871 37.2009 3.42857 26.2169 3.42857 14.05C3.43197 11.2865 4.47158 8.63712 6.31942 6.68298C8.16726 4.72883 10.6725 3.62942 13.2857 3.62582C17.4536 3.62582 20.9529 5.97354 22.4143 9.74439C22.5434 10.0769 22.7632 10.3613 23.0455 10.5614C23.3278 10.7616 23.6601 10.8684 24 10.8684C24.3399 10.8684 24.6722 10.7616 24.9545 10.5614C25.2368 10.3613 25.4566 10.0769 25.5857 9.74439C27.0471 5.96674 30.5464 3.62582 34.7143 3.62582C37.3275 3.62942 39.8327 4.72883 41.6806 6.68298C43.5284 8.63712 44.568 11.2865 44.5714 14.05C44.5714 26.1988 27.9086 37.1986 24 39.6121Z" fill="#FF0000"/>
</svg>
