<svg width="81" height="81" viewBox="0 0 81 81" fill="none" xmlns="http://www.w3.org/2000/svg">
<path opacity="0.2" d="M25.3125 43.0313C25.3125 44.5332 24.8671 46.0013 24.0327 47.2501C23.1983 48.4989 22.0123 49.4722 20.6248 50.047C19.2372 50.6217 17.7103 50.7721 16.2373 50.4791C14.7642 50.1861 13.4112 49.4629 12.3492 48.4008C11.2872 47.3388 10.5639 45.9858 10.2709 44.5127C9.97791 43.0397 10.1283 41.5128 10.703 40.1252C11.2778 38.7377 12.2511 37.5517 13.4999 36.7173C14.7487 35.8829 16.2169 35.4375 17.7188 35.4375C19.7327 35.4375 21.6642 36.2376 23.0883 37.6617C24.5125 39.0858 25.3125 41.0173 25.3125 43.0313ZM40.5 20.25C38.9981 20.25 37.5299 20.6954 36.2811 21.5298C35.0324 22.3642 34.059 23.5502 33.4843 24.9377C32.9095 26.3253 32.7592 27.8522 33.0522 29.3252C33.3452 30.7983 34.0684 32.1513 35.1304 33.2133C36.1924 34.2753 37.5455 34.9986 39.0185 35.2916C40.4916 35.5846 42.0184 35.4342 43.406 34.8595C44.7936 34.2847 45.9796 33.3114 46.814 32.0626C47.6484 30.8138 48.0938 29.3457 48.0938 27.8438C48.0938 25.8298 47.2937 23.8983 45.8696 22.4742C44.4455 21.0501 42.514 20.25 40.5 20.25ZM63.2813 45.5625C61.7794 45.5625 60.3112 46.0079 59.0624 46.8423C57.8136 47.6767 56.8403 48.8627 56.2655 50.2502C55.6908 51.6378 55.5404 53.1647 55.8334 54.6377C56.1264 56.1108 56.8497 57.4638 57.9117 58.5258C58.9737 59.5879 60.3267 60.3111 61.7998 60.6041C63.2728 60.8971 64.7997 60.7467 66.1873 60.172C67.5748 59.5972 68.7608 58.6239 69.5952 57.3751C70.4296 56.1263 70.875 54.6582 70.875 53.1563C70.875 51.1423 70.075 49.2108 68.6509 47.7867C67.2267 46.3626 65.2952 45.5625 63.2813 45.5625Z" fill="#AC6D3E"/>
<path d="M20.2501 33.2227V12.6562C20.2501 11.9849 19.9834 11.3411 19.5087 10.8664C19.034 10.3917 18.3902 10.125 17.7188 10.125C17.0475 10.125 16.4037 10.3917 15.929 10.8664C15.4543 11.3411 15.1876 11.9849 15.1876 12.6562V33.2227C13.0097 33.7803 11.0793 35.0469 9.70074 36.8229C8.32222 38.5988 7.57397 40.7831 7.57397 43.0312C7.57397 45.2794 8.32222 47.4637 9.70074 49.2396C11.0793 51.0156 13.0097 52.2822 15.1876 52.8398V68.3438C15.1876 69.0151 15.4543 69.6589 15.929 70.1336C16.4037 70.6083 17.0475 70.875 17.7188 70.875C18.3902 70.875 19.034 70.6083 19.5087 70.1336C19.9834 69.6589 20.2501 69.0151 20.2501 68.3438V52.8398C22.428 52.2822 24.3584 51.0156 25.7369 49.2396C27.1154 47.4637 27.8637 45.2794 27.8637 43.0312C27.8637 40.7831 27.1154 38.5988 25.7369 36.8229C24.3584 35.0469 22.428 33.7803 20.2501 33.2227ZM17.7188 48.0938C16.7176 48.0938 15.7388 47.7968 14.9063 47.2406C14.0737 46.6843 13.4249 45.8936 13.0417 44.9686C12.6585 44.0435 12.5583 43.0256 12.7536 42.0436C12.9489 41.0616 13.4311 40.1595 14.1391 39.4515C14.8471 38.7435 15.7492 38.2614 16.7312 38.066C17.7132 37.8707 18.7311 37.9709 19.6562 38.3541C20.5812 38.7373 21.3719 39.3862 21.9281 40.2187C22.4844 41.0512 22.7813 42.03 22.7813 43.0312C22.7813 44.3739 22.248 45.6616 21.2986 46.611C20.3492 47.5604 19.0615 48.0938 17.7188 48.0938ZM43.0313 18.0352V12.6562C43.0313 11.9849 42.7646 11.3411 42.2899 10.8664C41.8152 10.3917 41.1714 10.125 40.5001 10.125C39.8287 10.125 39.1849 10.3917 38.7102 10.8664C38.2355 11.3411 37.9688 11.9849 37.9688 12.6562V18.0352C35.7909 18.5928 33.8605 19.8594 32.482 21.6354C31.1035 23.4113 30.3552 25.5956 30.3552 27.8438C30.3552 30.0919 31.1035 32.2762 32.482 34.0521C33.8605 35.8281 35.7909 37.0947 37.9688 37.6523V68.3438C37.9688 69.0151 38.2355 69.6589 38.7102 70.1336C39.1849 70.6083 39.8287 70.875 40.5001 70.875C41.1714 70.875 41.8152 70.6083 42.2899 70.1336C42.7646 69.6589 43.0313 69.0151 43.0313 68.3438V37.6523C45.2093 37.0947 47.1396 35.8281 48.5182 34.0521C49.8967 32.2762 50.6449 30.0919 50.6449 27.8438C50.6449 25.5956 49.8967 23.4113 48.5182 21.6354C47.1396 19.8594 45.2093 18.5928 43.0313 18.0352ZM40.5001 32.9062C39.4988 32.9062 38.52 32.6093 37.6875 32.0531C36.855 31.4968 36.2061 30.7061 35.8229 29.7811C35.4398 28.856 35.3395 27.8381 35.5349 26.8561C35.7302 25.8741 36.2123 24.972 36.9204 24.264C37.6284 23.556 38.5304 23.0739 39.5124 22.8785C40.4945 22.6832 41.5124 22.7834 42.4374 23.1666C43.3625 23.5498 44.1531 24.1987 44.7094 25.0312C45.2657 25.8637 45.5626 26.8425 45.5626 27.8438C45.5626 29.1864 45.0292 30.4741 44.0798 31.4235C43.1304 32.3729 41.8427 32.9062 40.5001 32.9062ZM73.4063 53.1562C73.4042 50.9115 72.6576 48.7309 71.2834 46.956C69.9093 45.181 67.9852 43.912 65.8126 43.3477V12.6562C65.8126 11.9849 65.5459 11.3411 65.0712 10.8664C64.5965 10.3917 63.9527 10.125 63.2813 10.125C62.61 10.125 61.9662 10.3917 61.4915 10.8664C61.0168 11.3411 60.7501 11.9849 60.7501 12.6562V43.3477C58.5722 43.9053 56.6418 45.1719 55.2632 46.9479C53.8847 48.7238 53.1365 50.9081 53.1365 53.1562C53.1365 55.4044 53.8847 57.5887 55.2632 59.3646C56.6418 61.1406 58.5722 62.4072 60.7501 62.9648V68.3438C60.7501 69.0151 61.0168 69.6589 61.4915 70.1336C61.9662 70.6083 62.61 70.875 63.2813 70.875C63.9527 70.875 64.5965 70.6083 65.0712 70.1336C65.5459 69.6589 65.8126 69.0151 65.8126 68.3438V62.9648C67.9852 62.4005 69.9093 61.1315 71.2834 59.3565C72.6576 57.5816 73.4042 55.401 73.4063 53.1562ZM63.2813 58.2188C62.2801 58.2188 61.3013 57.9218 60.4688 57.3656C59.6362 56.8093 58.9874 56.0186 58.6042 55.0936C58.221 54.1685 58.1208 53.1506 58.3161 52.1686C58.5114 51.1866 58.9936 50.2845 59.7016 49.5765C60.4096 48.8685 61.3117 48.3864 62.2937 48.191C63.2757 47.9957 64.2936 48.0959 65.2187 48.4791C66.1437 48.8623 66.9344 49.5112 67.4906 50.3437C68.0469 51.1762 68.3438 52.155 68.3438 53.1562C68.3438 54.4989 67.8105 55.7866 66.8611 56.736C65.9117 57.6854 64.624 58.2188 63.2813 58.2188Z" fill="#633A1C"/>
</svg>
