<svg width="54" height="60" viewBox="0 0 54 60" fill="none" xmlns="http://www.w3.org/2000/svg">
<path d="M48.4439 51.1734L37.8823 39.4406C40.9435 35.3571 42.4699 30.1195 42.1441 24.8173C41.8183 19.5152 39.6653 14.5567 36.133 10.9734C32.6008 7.39003 27.9611 5.45777 23.1793 5.57852C18.3975 5.69927 13.8416 7.86374 10.4595 11.6217C7.07737 15.3796 5.12935 20.4416 5.02067 25.7548C4.912 31.0679 6.65104 36.2231 9.87603 40.1478C13.101 44.0726 17.5637 46.4648 22.3356 46.8268C27.1076 47.1888 31.8214 45.4927 35.4966 42.0914L46.0561 53.8265C46.2129 54.0008 46.399 54.1389 46.6039 54.2332C46.8087 54.3275 47.0283 54.376 47.25 54.376C47.4717 54.376 47.6913 54.3275 47.8961 54.2332C48.101 54.1389 48.2871 54.0008 48.4439 53.8265C48.6007 53.6523 48.7251 53.4455 48.8099 53.2179C48.8948 52.9903 48.9384 52.7464 48.9384 52.5C48.9384 52.2536 48.8948 52.0097 48.8099 51.7821C48.7251 51.5544 48.6007 51.3476 48.4439 51.1734ZM8.43749 26.25C8.43749 22.9124 9.32822 19.6498 10.997 16.8747C12.6659 14.0997 15.0378 11.9367 17.813 10.6595C20.5881 9.38229 23.6418 9.04811 26.5879 9.69923C29.534 10.3504 32.2402 11.9575 34.3642 14.3176C36.4882 16.6776 37.9347 19.6844 38.5207 22.9578C39.1067 26.2313 38.8059 29.6243 37.6564 32.7078C36.5069 35.7913 34.5603 38.4268 32.0627 40.281C29.5651 42.1353 26.6288 43.125 23.625 43.125C19.5984 43.12 15.738 41.3405 12.8907 38.1769C10.0435 35.0133 8.44196 30.724 8.43749 26.25Z" fill="black"/>
</svg>
