<svg width="80" height="80" viewBox="0 0 80 80" fill="none" xmlns="http://www.w3.org/2000/svg">
<path d="M40 7.5C33.5721 7.5 27.2886 9.40609 21.944 12.9772C16.5994 16.5484 12.4338 21.6242 9.97393 27.5628C7.51408 33.5014 6.87047 40.0361 8.12449 46.3404C9.37851 52.6448 12.4738 58.4358 17.019 62.981C21.5642 67.5262 27.3552 70.6215 33.6596 71.8755C39.964 73.1295 46.4986 72.4859 52.4372 70.0261C58.3758 67.5662 63.4516 63.4006 67.0228 58.056C70.5939 52.7114 72.5 46.4279 72.5 40C72.4909 31.3833 69.0639 23.122 62.9709 17.0291C56.878 10.9361 48.6168 7.5091 40 7.5ZM23.15 61.7187C24.9586 58.8903 27.45 56.5625 30.3948 54.9502C33.3395 53.3378 36.6427 52.4927 40 52.4927C43.3573 52.4927 46.6605 53.3378 49.6053 54.9502C52.55 56.5625 55.0415 58.8903 56.85 61.7187C52.0323 65.4656 46.1032 67.4998 40 67.4998C33.8968 67.4998 27.9677 65.4656 23.15 61.7187ZM30 37.5C30 35.5222 30.5865 33.5888 31.6853 31.9443C32.7841 30.2998 34.3459 29.0181 36.1732 28.2612C38.0004 27.5043 40.0111 27.3063 41.9509 27.6921C43.8907 28.078 45.6726 29.0304 47.0711 30.4289C48.4696 31.8275 49.422 33.6093 49.8079 35.5491C50.1937 37.4889 49.9957 39.4996 49.2388 41.3268C48.4819 43.1541 47.2002 44.7159 45.5557 45.8147C43.9112 46.9135 41.9778 47.5 40 47.5C37.3478 47.5 34.8043 46.4464 32.9289 44.5711C31.0536 42.6957 30 40.1522 30 37.5ZM60.55 58.2531C57.7618 54.2127 53.8412 51.0869 49.2813 49.2687C51.7307 47.3395 53.518 44.6949 54.3948 41.7028C55.2715 38.7107 55.1941 35.5197 54.1732 32.5736C53.1523 29.6275 51.2387 27.0728 48.6986 25.2647C46.1584 23.4565 43.118 22.4849 40 22.4849C36.8821 22.4849 33.8416 23.4565 31.3015 25.2647C28.7613 27.0728 26.8477 29.6275 25.8268 32.5736C24.806 35.5197 24.7285 38.7107 25.6052 41.7028C26.482 44.6949 28.2693 47.3395 30.7188 49.2687C26.1588 51.0869 22.2382 54.2127 19.45 58.2531C15.9268 54.2911 13.624 49.3951 12.8189 44.1547C12.0138 38.9142 12.7408 33.5528 14.9123 28.7159C17.0837 23.8791 20.6071 19.7731 25.0582 16.8923C29.5092 14.0115 34.6981 12.4789 40 12.4789C45.3019 12.4789 50.4908 14.0115 54.9419 16.8923C59.3929 19.7731 62.9163 23.8791 65.0878 28.7159C67.2592 33.5528 67.9862 38.9142 67.1811 44.1547C66.376 49.3951 64.0732 54.2911 60.55 58.2531Z" fill="#633A1C"/>
</svg>
